<svg width="738" height="623" viewBox="0 0 738 623" fill="none" xmlns="http://www.w3.org/2000/svg">
<path opacity="0.69" fill-rule="evenodd" clip-rule="evenodd" d="M630.4 158.7H586.6H474.8H474.6V158.699C460.293 158.592 448.8 147.033 448.8 132.7C448.8 118.367 460.293 106.808 474.6 106.701V106.7H474.8H518C532.4 106.7 544 95.1 544 80.7C544 66.3 532.4 54.7 518 54.7H262.6C248.2 54.7 236.6 66.3 236.6 80.7C236.6 95.1 248.2 106.7 262.6 106.7H318C332.4 106.7 344 118.3 344 132.7C344 147.1 332.4 158.7 318 158.7H140C125.6 158.7 114 170.3 114 184.7C114 199.1 125.6 210.7 140 210.7H210.8C225.2 210.7 236.8 222.3 236.8 236.7C236.8 251.1 225.2 262.7 210.8 262.7H180.9C166.5 262.7 154.9 274.3 154.9 288.7C154.9 303.1 166.5 314.7 180.9 314.7H279.5V315H283.7C298.1 315 309.7 326.6 309.7 341C309.7 355.4 298.1 367 283.7 367H231C229.647 367 228.318 366.898 227.022 366.7H203.5C189.1 366.7 177.5 378.3 177.5 392.7C177.5 407.1 189.1 418.7 203.5 418.7H342.1C356.5 418.7 368.1 430.3 368.1 444.7C368.1 459.1 356.5 470.7 342.1 470.7H264.6C250.2 470.7 238.6 482.3 238.6 496.7C238.6 511.1 250.2 522.7 264.6 522.7H561.2C575.6 522.7 587.2 511.1 587.2 496.7C587.2 482.3 575.6 470.7 561.2 470.7H486.7H480.7C466.3 470.7 454.7 459.1 454.7 444.7C454.7 430.3 466.3 418.7 480.7 418.7H486.7H510.3C524.7 418.7 536.3 407.1 536.3 392.7C536.3 378.3 524.7 366.7 510.3 366.7H486.7H414.5C400.1 366.7 388.5 355.1 388.5 340.7C388.5 326.3 400.1 314.7 414.5 314.7H486.7H526.2H585.3C599.7 314.7 611.3 303.1 611.3 288.7C611.3 274.3 599.7 262.7 585.3 262.7H509.2C494.8 262.7 483.2 251.1 483.2 236.7C483.2 222.3 494.8 210.7 509.2 210.7H589H620.9H630.6C645 210.7 656.6 199.1 656.6 184.7C656.4 170.4 644.8 158.7 630.4 158.7ZM388.8 262.7H336.1C321.7 262.7 310.1 251.1 310.1 236.7C310.1 222.3 321.7 210.7 336.1 210.7H388.8C403.2 210.7 414.8 222.3 414.8 236.7C414.8 251.1 403.2 262.7 388.8 262.7Z" fill="#00C154"/>
<path opacity="0.69" d="M578.2 418.7H614.4C628.8 418.7 640.4 407.1 640.4 392.7C640.4 378.3 628.8 366.7 614.4 366.7H578.2C563.8 366.7 552.2 378.3 552.2 392.7C552.2 407.1 563.8 418.7 578.2 418.7Z" fill="#00C154"/>
<path opacity="0.69" d="M666.4 314.7H654C639.6 314.7 628 303.1 628 288.7C628 274.3 639.6 262.7 654 262.7H666.4C680.8 262.7 692.4 274.3 692.4 288.7C692.4 303.1 680.8 314.7 666.4 314.7Z" fill="#00C154"/>
<path opacity="0.69" d="M145.5 522.7H194.1C208.5 522.7 220.1 511.1 220.1 496.7C220.1 482.3 208.5 470.7 194.1 470.7H145.5C131.1 470.7 119.5 482.3 119.5 496.7C119.5 511.1 131.1 522.7 145.5 522.7Z" fill="#00C154"/>
<path opacity="0.69" d="M68.3 210.7C82.7 210.7 94.3 199.1 94.3 184.7C94.3 170.3 82.7 158.7 68.3 158.7C53.9 158.7 42.3 170.3 42.3 184.7C42.3 199.1 53.9 210.7 68.3 210.7Z" fill="#00C154"/>
<g clip-path="url(#clip0_1_697)">
<path d="M411.463 519.286L223.772 450.972L321.788 181.676L509.479 249.99C516.211 252.44 519.789 259.749 517.339 266.482L428.233 511.296C425.758 518.097 418.196 521.736 411.463 519.286Z" fill="#E2B46E"/>
<path d="M321.287 181.994L318.663 169.102L220.647 438.398L223.395 450.95L321.287 181.994Z" stroke="#1F2120" stroke-width="5" stroke-miterlimit="10" stroke-linecap="round" stroke-linejoin="round"/>
<path d="M411.426 519.388L223.735 451.074L321.751 181.778L509.442 250.092C516.174 252.542 519.752 259.851 517.302 266.584L428.196 511.398C425.721 518.199 418.158 521.838 411.426 519.388Z" stroke="#1F2120" stroke-width="5" stroke-miterlimit="10" stroke-linecap="round" stroke-linejoin="round"/>
<path d="M408.375 506.61L220.684 438.296L318.7 169L506.391 237.314C513.124 239.764 516.701 247.074 514.251 253.806L425.146 498.621C422.671 505.421 415.108 509.061 408.375 506.61Z" fill="#4C5B60"/>
<path opacity="0.3" d="M330.261 173.208L318.7 169L220.684 438.296L232.245 442.504L330.261 173.208Z" fill="#CCDDE5"/>
<path d="M408.375 506.61L220.684 438.296L318.7 169L506.391 237.314C513.124 239.764 516.701 247.074 514.251 253.806L425.146 498.621C422.671 505.421 415.108 509.061 408.375 506.61Z" stroke="#1F2120" stroke-width="5" stroke-miterlimit="10" stroke-linecap="round" stroke-linejoin="round"/>
<path d="M341.821 177.415L318.7 169L220.684 438.296L243.806 446.712L341.821 177.415Z" stroke="#1F2120" stroke-width="5" stroke-miterlimit="10" stroke-linecap="round" stroke-linejoin="round"/>
<path d="M490.415 319.294L290.483 246.525L262.762 322.689L462.694 395.458L490.415 319.294Z" fill="#FF9852"/>
<path opacity="0.6" d="M313.605 254.94L285.883 331.105" stroke="#D85639" stroke-width="5" stroke-miterlimit="10"/>
<path d="M302.044 250.732L290.483 246.525L262.762 322.689L274.322 326.897L302.044 250.732Z" fill="#FDBA5D"/>
<path d="M490.415 319.294L290.483 246.525L262.762 322.689L462.694 395.458L490.415 319.294Z" stroke="#1F2120" stroke-width="5" stroke-miterlimit="10" stroke-linecap="round" stroke-linejoin="round"/>
<path d="M250.855 484.472L234.588 465.69L241.766 445.969L262.167 453.395L250.855 484.472Z" fill="#EA3939"/>
<path opacity="0.62" d="M262.167 453.395L241.766 445.969L238.969 453.654L259.37 461.079L262.167 453.395Z" fill="#EA3939"/>
<path d="M250.855 484.472L234.588 465.69L241.766 445.969L262.167 453.395L250.855 484.472Z" stroke="#1F2120" stroke-width="5" stroke-miterlimit="10" stroke-linecap="round" stroke-linejoin="round"/>
<path d="M406.84 518.635L210.138 483.951L259.902 201.726L456.604 236.41C463.66 237.654 468.453 244.231 467.208 251.286L421.969 507.855C420.712 514.982 413.896 519.879 406.84 518.635Z" fill="#E2B46E"/>
<path d="M259.464 202.126L254.641 189.886L204.877 472.111L209.763 483.995L259.464 202.126Z" stroke="#1F2120" stroke-width="5" stroke-miterlimit="10" stroke-linecap="round" stroke-linejoin="round"/>
<path d="M406.822 518.742L210.119 484.058L259.883 201.833L456.585 236.517C463.641 237.761 468.434 244.338 467.19 251.393L421.95 507.962C420.693 515.088 413.877 519.986 406.822 518.742Z" stroke="#1F2120" stroke-width="5" stroke-miterlimit="10" stroke-linecap="round" stroke-linejoin="round"/>
<path d="M401.598 506.688L204.896 472.004L254.66 189.779L451.362 224.463C458.418 225.707 463.211 232.284 461.967 239.339L416.727 495.908C415.47 503.035 408.654 507.932 401.598 506.688Z" fill="#4C5B60"/>
<path opacity="0.3" d="M266.776 191.915L254.66 189.779L204.896 472.004L217.012 474.14L266.776 191.915Z" fill="#CCDDE5"/>
<path d="M401.598 506.688L204.896 472.004L254.66 189.779L451.362 224.463C458.418 225.707 463.211 232.284 461.967 239.339L416.727 495.908C415.47 503.035 408.654 507.932 401.598 506.688Z" stroke="#1F2120" stroke-width="5" stroke-miterlimit="10" stroke-linecap="round" stroke-linejoin="round"/>
<path d="M278.891 194.051L254.66 189.779L204.896 472.004L229.128 476.277L278.891 194.051Z" stroke="#1F2120" stroke-width="5" stroke-miterlimit="10" stroke-linecap="round" stroke-linejoin="round"/>
<path d="M449.865 307.971L240.334 271.025L226.259 350.847L435.79 387.793L449.865 307.971Z" fill="#FF9852"/>
<path opacity="0.6" d="M264.565 275.298L250.491 355.119" stroke="#D85639" stroke-width="5" stroke-miterlimit="10"/>
<path d="M252.45 273.162L240.334 271.025L226.259 350.847L238.375 352.983L252.45 273.162Z" fill="#FDBA5D"/>
<path d="M449.865 307.971L240.334 271.025L226.259 350.847L435.79 387.793L449.865 307.971Z" stroke="#1F2120" stroke-width="5" stroke-miterlimit="10" stroke-linecap="round" stroke-linejoin="round"/>
<path d="M242.627 512.24L223.345 496.568L226.989 475.9L248.37 479.67L242.627 512.24Z" fill="#EA3939"/>
<path opacity="0.62" d="M248.37 479.67L226.989 475.9L225.569 483.953L246.95 487.723L248.37 479.67Z" fill="#EA3939"/>
<path d="M242.627 512.24L223.345 496.568L226.989 475.9L248.37 479.67L242.627 512.24Z" stroke="#1F2120" stroke-width="5" stroke-miterlimit="10" stroke-linecap="round" stroke-linejoin="round"/>
<path d="M390.974 505.102H191.237V218.523H390.974C398.138 218.523 404 224.168 404 231.333V491.859C404 499.096 398.138 505.102 390.974 505.102Z" fill="#E2B46E"/>
<path d="M190.875 218.994L184 207.777V494.356L190.875 505.211V218.994Z" stroke="#1F2120" stroke-width="5" stroke-miterlimit="10" stroke-linecap="round" stroke-linejoin="round"/>
<path d="M390.974 505.211H191.237V218.632H390.974C398.138 218.632 404 224.277 404 231.441V491.967C404 499.204 398.138 505.211 390.974 505.211Z" stroke="#1F2120" stroke-width="5" stroke-miterlimit="10" stroke-linecap="round" stroke-linejoin="round"/>
<path d="M383.737 494.247H184V207.668H383.737C390.901 207.668 396.763 213.313 396.763 220.477V481.004C396.763 488.24 390.901 494.247 383.737 494.247Z" fill="#4C5B60"/>
<path opacity="0.3" d="M196.303 207.668H184V494.247H196.303V207.668Z" fill="#CCDDE5"/>
<path d="M383.737 494.247H184V207.668H383.737C390.901 207.668 396.763 213.313 396.763 220.477V481.004C396.763 488.24 390.901 494.247 383.737 494.247Z" stroke="#1F2120" stroke-width="5" stroke-miterlimit="10" stroke-linecap="round" stroke-linejoin="round"/>
<path d="M208.605 207.668H184V494.247H208.605V207.668Z" stroke="#1F2120" stroke-width="5" stroke-miterlimit="10" stroke-linecap="round" stroke-linejoin="round"/>
<path d="M396.763 290.168H184V371.221H396.763V290.168Z" fill="#FF9852"/>
<path opacity="0.6" d="M208.605 290.168V371.221" stroke="#D85639" stroke-width="5" stroke-miterlimit="10"/>
<path d="M196.303 290.168H184V371.221H196.303V290.168Z" fill="#FDBA5D"/>
<path d="M396.763 290.168H184V371.221H396.763V290.168Z" stroke="#1F2120" stroke-width="5" stroke-miterlimit="10" stroke-linecap="round" stroke-linejoin="round"/>
<path d="M228.145 527.319L206.434 515.234V494.247H228.145V527.319Z" fill="#EA3939"/>
<path opacity="0.62" d="M228.145 494.247H206.434V502.425H228.145V494.247Z" fill="#EA3939"/>
<path d="M228.145 527.319L206.434 515.234V494.247H228.145V527.319Z" stroke="#1F2120" stroke-width="5" stroke-miterlimit="10" stroke-linecap="round" stroke-linejoin="round"/>
<path d="M112.863 473.972H115.945C123.438 473.972 129.555 467.902 129.555 460.362V395.871L124.955 408.342L129.555 414.981" stroke="#1F2120" stroke-width="4" stroke-miterlimit="10" stroke-linecap="round" stroke-linejoin="round"/>
<path d="M117.226 428.78C110.018 428.78 102.763 428.78 95.5547 428.78C90.8601 391.508 94.8908 322.417 99.1112 294.818C103.948 294.818 108.832 294.818 113.669 294.818C117.89 322.417 121.92 391.508 117.226 428.78Z" fill="#FF1A1A"/>
<path opacity="0.2" d="M113.669 294.818C112.673 294.818 111.63 294.818 110.634 294.818C112.91 324.029 117.795 391.508 113.1 428.78C114.475 428.78 115.851 428.78 117.226 428.78C121.92 391.508 117.89 322.417 113.669 294.818Z" fill="#FF1A1A"/>
<path opacity="0.68" d="M108.5 426.646C103.948 390.512 104.375 330.051 106.367 294.771C103.379 294.771 102.099 294.771 99.0638 294.771C94.8434 322.369 90.8126 391.461 95.5073 428.733C102.715 428.733 109.97 428.733 117.178 428.733C117.273 428.022 117.368 427.31 117.415 426.599C114.475 426.646 111.488 426.646 108.5 426.646Z" fill="#3F4545"/>
<path d="M117.226 428.78C110.018 428.78 102.763 428.78 95.5547 428.78C90.8601 391.508 94.8908 322.417 99.1112 294.818C103.948 294.818 108.832 294.818 113.669 294.818C117.89 322.417 121.92 391.508 117.226 428.78Z" stroke="#1F2120" stroke-width="4" stroke-miterlimit="10" stroke-linecap="round" stroke-linejoin="round"/>
<path d="M121.114 449.266C118.032 474.588 110.729 490 106.414 490C102.051 490 94.7485 474.588 91.7136 449.266C89.2952 427.073 90.0065 404.833 90.9075 382.783C101.245 382.783 111.583 382.783 121.968 382.783C122.821 404.833 123.485 427.073 121.114 449.266Z" fill="#FF1A1A"/>
<path opacity="0.2" d="M121.92 382.735C120.166 382.735 118.411 382.735 116.657 382.735C117.558 404.786 118.269 427.026 115.851 449.219C113.337 469.894 108.026 483.978 103.758 488.435C104.707 489.431 105.608 489.953 106.414 489.953C110.777 489.953 118.079 474.541 121.114 449.219C123.485 427.073 122.821 404.833 121.92 382.735Z" fill="#FF1A1A"/>
<path opacity="0.68" d="M91.6662 449.266C92.7569 458.465 94.464 466.337 96.3608 472.692C105.56 470.747 108.88 439.877 108.88 398.621C108.88 394.211 108.69 387.05 108.548 382.783C101.293 382.783 98.1154 382.783 90.8601 382.783C89.9117 404.833 89.2478 427.073 91.6662 449.266Z" fill="#3F4545"/>
<path d="M121.114 449.266C118.032 474.588 110.729 490 106.414 490C102.051 490 94.7485 474.588 91.7136 449.266C89.2952 427.073 90.0065 404.833 90.9075 382.783C101.245 382.783 111.583 382.783 121.968 382.783C122.821 404.833 123.485 427.073 121.114 449.266Z" stroke="#1F2120" stroke-width="4" stroke-miterlimit="10" stroke-linecap="round" stroke-linejoin="round"/>
<path d="M117.321 268.5C110.539 258.873 106.366 240 106.366 240C106.366 240 102.241 258.873 95.4124 268.5C95.0805 268.974 95.0805 269.543 95.4124 270.017C100.249 277.225 101.767 286.756 99.7751 294.77H106.366H112.958C110.919 286.756 112.436 277.225 117.321 270.017C117.653 269.59 117.653 268.974 117.321 268.5Z" fill="#EAEAEA"/>
<path opacity="0.37" d="M117.321 268.5C110.539 258.873 106.366 240 106.366 240C106.366 240 105.418 244.41 103.616 250.053C105.513 256.075 108.311 263.52 111.82 268.5C112.152 268.974 112.152 269.543 111.82 270.017C106.983 277.225 105.466 286.756 107.457 294.77H112.911C110.871 286.756 112.389 277.225 117.273 270.017C117.653 269.59 117.653 268.974 117.321 268.5Z" fill="#B5B4B4"/>
<path d="M117.321 268.5C110.539 258.873 106.366 240 106.366 240C106.366 240 102.241 258.873 95.4124 268.5C95.0805 268.974 95.0805 269.543 95.4124 270.017C100.249 277.225 101.767 286.756 99.7751 294.77H106.366H112.958C110.919 286.756 112.436 277.225 117.321 270.017C117.653 269.59 117.653 268.974 117.321 268.5Z" stroke="#1F2120" stroke-width="4" stroke-miterlimit="10" stroke-linecap="round" stroke-linejoin="round"/>
<path d="M106.366 240.047V267.409" stroke="#1F2120" stroke-width="4" stroke-miterlimit="10" stroke-linecap="round" stroke-linejoin="round"/>
<path d="M106.366 272.151C108.409 272.151 110.065 270.495 110.065 268.452C110.065 266.409 108.409 264.753 106.366 264.753C104.324 264.753 102.668 266.409 102.668 268.452C102.668 270.495 104.324 272.151 106.366 272.151Z" fill="#1F2120"/>
<path d="M586.865 283.083H558V469.581H586.865V283.083Z" fill="#47A942"/>
<path d="M586.865 283.083H558V469.581H586.865V283.083Z" stroke="#1F2120" stroke-width="4" stroke-miterlimit="10" stroke-linecap="round" stroke-linejoin="round"/>
<path d="M577.778 283.083H567.087V469.581H577.778V283.083Z" stroke="#1F2120" stroke-width="4" stroke-miterlimit="10" stroke-linecap="round" stroke-linejoin="round"/>
<path d="M586.865 283.083H558L572.432 240L586.865 283.083Z" fill="#C4C4C4"/>
<path d="M586.865 283.083H558L572.432 240L586.865 283.083Z" stroke="#1F2120" stroke-width="4" stroke-miterlimit="10" stroke-linecap="round" stroke-linejoin="round"/>
<path d="M558 469.581H586.865V479.149C586.865 485.136 582 490 576.014 490H568.851C562.864 490 558 485.136 558 479.149V469.581V469.581Z" fill="#C4C4C4"/>
<path d="M558 469.581H586.865V479.149C586.865 485.136 582 490 576.014 490H568.851C562.864 490 558 485.136 558 479.149V469.581V469.581Z" stroke="#1F2120" stroke-width="4" stroke-miterlimit="10" stroke-linecap="round" stroke-linejoin="round"/>
<path d="M586.865 450.605H558V469.527H586.865V450.605Z" fill="#CCCC00"/>
<path d="M586.865 450.605H558V469.527H586.865V450.605Z" stroke="#1F2120" stroke-width="4" stroke-miterlimit="10" stroke-linecap="round" stroke-linejoin="round"/>
<path d="M572.432 240L566.606 257.372H578.259L572.432 240Z" fill="#1F2120"/>
</g>
<defs>
<clipPath id="clip0_1_697">
<rect width="738" height="623" fill="white"/>
</clipPath>
</defs>
</svg>
